<?xml version="1.0" encoding="UTF-8"?>
<svg xmlns="http://www.w3.org/2000/svg" xmlns:xlink="http://www.w3.org/1999/xlink" version="1.1" viewBox="0 0 560 60">
  <defs>
    <style>
      .cls-1 {
        fill: #fff;
      }

      .cls-2 {
        fill: url(#Degradado_sin_nombre_4-2);
      }

      .cls-3 {
        fill: url(#Degradado_sin_nombre_4-4);
      }

      .cls-4 {
        fill: url(#Degradado_sin_nombre_4-3);
      }

      .cls-5 {
        fill: url(#Degradado_sin_nombre_4);
      }
    </style>
    <linearGradient id="Degradado_sin_nombre_4" data-name="Degradado sin nombre 4" x1="49" y1="15.9" x2="71.9" y2="15.9" gradientUnits="userSpaceOnUse">
      <stop offset="0" stop-color="#2f5872"/>
      <stop offset="1" stop-color="#01e469"/>
    </linearGradient>
    <linearGradient id="Degradado_sin_nombre_4-2" data-name="Degradado sin nombre 4" x1="22.5" y1="30" x2="71.2" y2="30" xlink:href="#Degradado_sin_nombre_4"/>
    <linearGradient id="Degradado_sin_nombre_4-3" data-name="Degradado sin nombre 4" x1="8.7" y1="30" x2="71.5" y2="30" xlink:href="#Degradado_sin_nombre_4"/>
    <linearGradient id="Degradado_sin_nombre_4-4" data-name="Degradado sin nombre 4" x1="305.9" y1="30" x2="343.7" y2="30" xlink:href="#Degradado_sin_nombre_4"/>
  </defs>
  <!-- Generator: Adobe Illustrator 28.6.0, SVG Export Plug-In . SVG Version: 1.2.0 Build 709)  -->
  <g>
    <g id="Capa_1">
      <g>
        <g>
          <path class="cls-5" d="M71.9,16h0c0,0-9.6,9.9-9.6,9.9-.9,1-2.2,1.5-3.6,1.5h-9.1c-.4,0-.7-.5-.4-.9l10-10.2c.2-.2.2-.5,0-.7l-10.1-10.3c-.3-.3,0-.9.4-.9h9.1c1.3,0,2.6.5,3.6,1.5l9.8,10Z"/>
          <path class="cls-2" d="M62.1,32.6h-28.1c-1.4,0-2.6-1.1-2.7-2.5s1.1-2.7,2.6-2.7h6.7c.4,0,.8-.2,1.1-.4l7.5-7.6c.3-.3,0-.9-.4-.9h-14.9c-5.4,0-10,3.8-11.2,8.9-.2.8-.3,1.7-.3,2.6s.1,1.8.3,2.6c1.2,5.1,5.7,8.9,11.2,8.9h36.7c.4,0,.7-.5.4-.9l-7.1-7.3c-.5-.5-1.1-.8-1.8-.8Z"/>
          <path class="cls-4" d="M71.4,47.6c.3-.3,0-.9-.4-.9h-36.7c-4.9,0-9.2-2.1-12.3-5.4-2.2-2.4-3.8-5.5-4.3-8.9-.1-.8-.2-1.7-.2-2.5s0-1.8.2-2.7c.5-3.4,2.1-6.5,4.4-8.9,2.8-3,6.7-5.2,11.1-5.2h15.2c.4,0,.7-.5.4-.9l-7.4-7.3c-.5-.5-1.1-.7-1.8-.7,0,0-6.6,0-6.6,0-7.2.4-13.6,3.7-18,8.9-3.9,4.5-6.2,10.3-6.2,16.7s2.4,12.3,6.2,16.8c4.7,5.4,11.6,8.9,19.4,8.9h28.2c.7,0,1.3-.3,1.8-.8l7.1-7.2Z"/>
        </g>
        <g>
          <g>
            <path class="cls-1" d="M111.1,36.6c-2.1,2.9-5.3,4.4-9.2,4.4-6.5,0-10.5-4.2-10.5-11s3.9-10.8,10.5-10.8,7.2,1.5,9.2,4.4l.6.8,7-6-.6-.7c-3.9-4.8-9.5-7.3-16.4-7.3-12.1,0-19.7,7.5-19.7,19.5s7.5,19.7,19.7,19.7,12.5-2.3,16.4-7.2l.6-.7-7-6-.6.8Z"/>
            <path class="cls-1" d="M151.9,24.9c0-8.9-5.5-13.8-15.4-13.8h-15.5v37.7h9v-10.2h6l7.1,10.2h11l-8.9-12.1c4.4-2.2,6.7-6.3,6.7-11.9ZM130,19.2h5.9c4.6,0,6.7,1.8,6.7,5.9s-2.6,5.5-7.3,5.5h-5.3v-11.5Z"/>
            <path class="cls-1" d="M179,32.1c0,6.3-2.2,8.8-7.4,8.8s-7.4-2.6-7.4-8.8V11.1h-9v22.7c0,10.3,5.7,15.8,16.4,15.8s16.5-5.5,16.5-15.8V11.1h-9v20.9Z"/>
            <path class="cls-1" d="M208.6,25.8c-5.4-1.1-8-2-8-4s1.9-3,5.2-3,6.7.7,10.2,2.2l.8.3,3.8-7.6-.8-.4c-4-1.9-8.8-2.9-13.9-2.9-9,0-14.4,4.4-14.4,11.8s7.2,10.6,14,12c5.3,1,6.8,1.9,6.8,3.8,0,2.2-1.8,3.3-5.4,3.3s-7.6-1-11.9-3l-.9-.4-3.4,7.9.8.4c4.6,2.1,8.9,3.4,15.7,3.4,11.9,0,14.4-6.6,14.4-12.1,0-8.3-6.7-10.4-12.9-11.7Z"/>
            <path class="cls-1" d="M243.1,10.4c-11.9,0-20,7.9-20,19.6s8,19.6,20,19.6,20-7.9,20-19.6-8-19.6-20-19.6ZM243.1,41c-6.4,0-10.6-4.4-10.6-11s4.3-11,10.6-11,10.7,4.4,10.7,11-4.3,11-10.7,11Z"/>
            <polygon class="cls-1" points="275.8 40.8 275.8 34.4 291.8 34.4 291.8 26.6 275.8 26.6 275.8 19.2 295 19.2 295 11.1 266.9 11.1 266.9 48.9 296 48.9 296 40.8 275.8 40.8"/>
          </g>
          <g>
            <path class="cls-1" d="M391.7,42.4l-6.8-5.8-.4.5c-2.2,3.1-5.7,4.8-10,4.8-7,0-11.4-4.6-11.4-12s4.3-11.7,11.4-11.7,7.7,1.7,10,4.8l.4.5,6.8-5.8-.4-.5c-4.1-5-9.8-7.5-17-7.5-12.5,0-20.3,7.7-20.3,20.2s7.8,20.3,20.3,20.3,12.9-2.4,17-7.4l.4-.5Z"/>
            <path class="cls-1" d="M408.8,10.5l-18.4,39h9.5l3.2-7.2h16.4l3.2,7.2h9.5l-18.5-39h-4.9ZM416.4,34.9h-10.4l5.2-12.1,5.2,12.1Z"/>
            <path class="cls-1" d="M466.3,24.6c0-9.1-5.6-14.1-15.9-14.1h-15.9v39h8.8v-10.7h6.8l7.5,10.7h10.7l-9.2-12.5c4.7-2.2,7.2-6.5,7.2-12.4ZM457.2,24.9c0,4-2.8,6.2-8,6.2h-5.9v-12.8h6.6c5,0,7.4,2.1,7.4,6.6Z"/>
            <path class="cls-1" d="M488.7,35.7h10.4v4.5c-2.1,1.3-4.8,2-8.4,2-7.7,0-12.2-4.5-12.2-12.1s4.5-12,11.7-12,7.4,1.3,9.9,3.5l.5.4,5.6-6.2-.5-.4c-4.1-3.7-9.3-5.6-15.5-5.6s-11.4,1.9-15.1,5.5c-3.7,3.6-5.6,8.7-5.6,14.8,0,12.5,8,20.2,20.8,20.2s12.7-1.7,16.7-5.2l.2-.2v-16.7h-18.5v7.5Z"/>
            <path class="cls-1" d="M530.6,9.8c-12.3,0-20.6,8.1-20.6,20.3s8.3,20.2,20.6,20.2,20.7-8.1,20.7-20.2-8.3-20.3-20.7-20.3ZM542.2,30c0,7.1-4.7,11.9-11.6,11.9s-11.5-4.8-11.5-11.9,4.6-12,11.5-12,11.6,4.8,11.6,12Z"/>
          </g>
          <path class="cls-3" d="M343.7,30.1h0c0,.1-15.8,16.3-15.8,16.3-1.6,1.6-3.7,2.5-5.9,2.5h-15c-.7,0-1.1-.9-.6-1.4l16.4-16.8c.3-.3.3-.8,0-1.2l-16.6-17c-.5-.5-.1-1.4.6-1.4h15c2.2,0,4.3.9,5.9,2.5l16.1,16.5Z"/>
        </g>
      </g>
    </g>
  </g>
</svg>