<?xml version="1.0" standalone="no"?>
<!DOCTYPE svg PUBLIC "-//W3C//DTD SVG 20010904//EN"
 "http://www.w3.org/TR/2001/REC-SVG-20010904/DTD/svg10.dtd">
<svg version="1.0" xmlns="http://www.w3.org/2000/svg"
 width="32.000000pt" height="32.000000pt" viewBox="0 0 32.000000 32.000000"
 preserveAspectRatio="xMidYMid meet">
<metadata>
Created by potrace 1.16, written by Peter Selinger 2001-2019
</metadata>
<g transform="translate(0.000000,32.000000) scale(0.100000,-0.100000)"
fill="#000000" stroke="none">
<path d="M249 251 c17 -13 22 -23 16 -39 -8 -27 -20 -28 -35 -4 -9 14 -10 9
-7 -23 2 -22 7 -49 12 -59 7 -17 5 -18 -18 -12 -20 5 -27 3 -27 -8 0 -8 5 -18
10 -21 6 -3 10 -13 10 -21 0 -11 -6 -14 -22 -9 -19 6 -21 5 -10 -6 18 -20 15
-29 -12 -29 -31 0 -59 27 -53 51 3 11 0 16 -8 13 -17 -7 -8 -38 16 -60 24 -22
86 -14 129 16 37 27 38 40 3 41 -20 1 -22 3 -8 6 70 14 67 12 50 29 -19 19
-19 33 -2 40 9 3 14 22 15 48 0 43 0 44 -41 55 -42 10 -42 10 -18 -8z"/>
</g>
</svg>
