<?xml version="1.0" encoding="UTF-8"?>
<svg id="Capa_1" xmlns="http://www.w3.org/2000/svg" xmlns:xlink="http://www.w3.org/1999/xlink" version="1.1" viewBox="0 0 500 500">
  <!-- Generator: Adobe Illustrator 29.2.1, SVG Export Plug-In . SVG Version: 2.1.0 Build 116)  -->
  <defs>
    <style>
      .st0 {
        fill: url(#Degradado_sin_nombre_3);
      }

      .st1 {
        fill: url(#Degradado_sin_nombre_32);
      }

      .st2 {
        fill: url(#Degradado_sin_nombre_31);
      }
    </style>
    <linearGradient id="Degradado_sin_nombre_3" data-name="Degradado sin nombre 3" x1="316.6" y1="360.8" x2="495.6" y2="360.8" gradientTransform="translate(0 502) scale(1 -1)" gradientUnits="userSpaceOnUse">
      <stop offset="0" stop-color="#2f5872"/>
      <stop offset="1" stop-color="#01e469"/>
    </linearGradient>
    <linearGradient id="Degradado_sin_nombre_31" data-name="Degradado sin nombre 3" x1="109.6" y1="250.6" x2="490.5" y2="250.6" xlink:href="#Degradado_sin_nombre_3"/>
    <linearGradient id="Degradado_sin_nombre_32" data-name="Degradado sin nombre 3" x1="1.8" y1="251.7" x2="492.6" y2="251.7" xlink:href="#Degradado_sin_nombre_3"/>
  </defs>
  <path class="st0" d="M495.8,142h0l-75,77.4c-7,7.8-17.2,11.7-28.1,11.7h-71.1c-3.1,0-5.5-3.9-3.1-7l78.2-79.7c1.6-1.6,1.6-3.9,0-5.5l-78.9-80.5c-2.3-2.3,0-7,3.1-7h71.1c10.2,0,20.3,3.9,28.1,11.7l76.6,78.2-.8.8Z"/>
  <path class="st2" d="M419.2,271.8h-219.6c-10.9,0-20.3-8.6-21.1-19.5-.8-10.9,8.6-21.1,20.3-21.1h52.4c3.1,0,6.3-1.6,8.6-3.1l58.6-59.4c2.3-2.3,0-7-3.1-7h-116.5c-42.2,0-78.2,29.7-87.5,69.6-1.6,6.3-2.3,13.3-2.3,20.3s.8,14.1,2.3,20.3c9.4,39.9,44.6,69.6,87.5,69.6h286.9c3.1,0,5.5-3.9,3.1-7l-55.5-57.1c-3.9-3.9-8.6-6.3-14.1-6.3v.8Z"/>
  <path class="st1" d="M491.9,389c2.3-2.3,0-7-3.1-7H201.9c-38.3,0-71.9-16.4-96.1-42.2-17.2-18.8-29.7-43-33.6-69.6-.8-6.3-1.6-13.3-1.6-19.5s0-14.1,1.6-21.1c3.9-26.6,16.4-50.8,34.4-69.6,21.9-23.4,52.4-40.6,86.8-40.6h118.8c3.1,0,5.5-3.9,3.1-7l-57.8-57.1c-3.9-3.9-8.6-5.5-14.1-5.5h-51.6c-56.3,3.1-106.3,28.9-140.7,69.6C20.5,154.5,2.6,199.9,2.6,249.9s18.8,96.1,48.5,131.3c36.7,42.2,90.7,69.6,151.6,69.6h220.4c5.5,0,10.2-2.3,14.1-6.3l55.5-56.3-.8.8Z"/>
</svg>