<?xml version="1.0" encoding="utf-8"?>
<!-- Generator: Adobe Illustrator 28.0.0, SVG Export Plug-In . SVG Version: 6.00 Build 0)  -->
<svg version="1.1" id="Capa_1" xmlns="http://www.w3.org/2000/svg" xmlns:xlink="http://www.w3.org/1999/xlink" x="0px" y="0px"
	 viewBox="0 0 480 472.7" style="enable-background:new 0 0 480 472.7;" xml:space="preserve">
<style type="text/css">
	.st0{fill:#2E5D6D;}
</style>
<path class="st0" d="M52.3,149c-2.3-10.7-1-27,7.1-35.5c14.5-15.1,39.7-14.7,58.5-11.2c0.3,0.1,0.6-0.1,0.8-0.3
	c2.7-4.2,5.1-8.5,7.3-13c2-4.1,3.8-7.1,5.3-8.9c6.4-7.7,16.3-13.5,25.4-17.4c0.3-0.1,0.4-0.4,0.3-0.7c-2.8-7.7,1.9-13.7,8.6-16.8
	c18.4-8.4,35.6-19.7,53.5-31.3c6.7-4.4,11.5-6.9,14.3-7.6c14-3.5,26.1,9.1,32.1,20.9c5.7,11.4,8.9,22.7,12,35
	c0.1,0.3,0.2,0.4,0.5,0.5l26.9,8.1c0.2,0.1,0.5,0,0.7-0.2c4.8-5.8,12.2-10.5,19.8-9.3c1.8,0.3,4.9,1.5,9.5,3.6
	c16.2,7.7,31.4,13.5,48.2,17.4c15.3,3.6,30.8,6.4,46,10.3c13.1,3.3,33.1,9.3,39.7,22.5c7,14,0,32.5-7.2,45.1
	c-1.3,2.3-2.2,4.4-2.5,6.3c-1.2,6.9-0.2,15.1,1.1,22.1c1.7,8.9,3.3,16.1,5,21.5c2.2,7.4,1.8,14.2-1.3,20.6
	c-7.2,14.7-22.1,20.6-37.8,18.1c-0.3-0.1-0.5,0.1-0.5,0.4c-1.2,29.8,12.3,56.6,42.6,65.2c3.8,1.1,5.8,3.5,5.9,7.3
	c0.2,4.5-3.3,6.6-7.5,7.8c-41,12-93.5,22.5-133.2,0.4c-0.3-0.2-0.7-0.1-0.8,0.2c-0.1,0.1-0.1,0.3-0.1,0.5c0.2,1,0.8,2,1.7,2.8
	c10.5,9.4,22.8,15.2,36.5,18.4c15.7,3.7,31.5,4.9,47.5,3.8c4.8-0.3,8.9-0.2,10.1,4.8c1.6,6.5-10.4,21.8-14.6,26.6
	c-11,12.7-23.6,23.5-37.8,32.5c-21.2,13.4-42.1,25.1-64.8,33.1c-13,4.6-25.6,8.2-37.8,11c-42.1,9.5-82.8-1.7-109.4-36.5
	c-12.1-15.9-18.5-34.5-23.8-53.5c-0.1-0.3-0.3-0.4-0.6-0.3c-16.3,5.4-42.9,5.8-48.8-15.3c-1.9-7-2.1-16-1.1-21.7
	c2.1-12.7,5.1-25.3,8.9-37.7c0.1-0.3,0-0.5-0.3-0.6c-33.6-8-63.8-30.3-78.6-61.3C13.4,223.3,9.1,208.7,6.9,193
	c-1.6-11.5-2-20.8,4.5-30.4c3.5-5.1,8.1-8.7,13.9-10.8c1.4-0.5,2.9-1,4.3-1.4c6.4-2,15.6-1.5,22.3-1C52.3,149.5,52.4,149.3,52.3,149
	z M139.3,92.5c-1.9,4.1-4.5,8.9-7.9,14.6c-0.1,0.3-0.1,0.5,0.1,0.7l6.7,5.8c0.2,0.2,0.5,0.2,0.7,0.1c8.6-3.6,17.1-3.5,25.6,0.5
	c0.3,0.2,0.6,0.1,0.8-0.2c0.3-0.5,0.5-1.4,0.9-1.8c7-10.3,16.5-14.8,28.6-15.9c3.3-0.3,6.7-0.6,10-0.8c15.8-1.1,31.4-0.2,47,2.7
	c10.2,1.9,17.8,5.2,24.2,13.4c0.2,0.2,0.5,0.4,0.8,0.5l39.7,11.5c0.4,0.1,0.6,0,0.6-0.4c0.5-8.2,11.1-9,13-1.5
	c3.7,14.3,8.1,23.5,15,38.3c6.7,14.2,15.5,28,30.9,33c4.2,1.4,7-0.8,9.2-4c2.3-3.4,4.1-7.3,5.5-11.7c3.1-9.4,5.3-19,6.6-28.7
	c1.9-13.2,1.5-25.5-9.8-34.5c-1.6-1.3-5-3.2-10.1-5.8c-17.6-8.9-34.1-19.9-50.6-31.8c-6.5-4.6-11.4,3.4-14.5,7.8
	c-1.5,2.1-5.1,2.2-7.6,1.2c-21.1-7.6-43.1-13.3-65.3-16.6c-26.5-3.9-56.2-3.4-81.1,7.9C151.4,79.8,142.6,85.1,139.3,92.5z
	 M248.1,138.4c7.1,3.2,16.3,2.6,20-5c3.9-8-3.4-16.9-10.4-20.1c-1.8-0.8-5.6-1.7-11.3-2.7c-5.7-1-12.9-1.4-19-2.4
	c-2.5-0.4-7.3-0.2-6.8,3.6c0.4,2.9,1.6,4.3,3.6,7.1C230.5,127.5,238.4,134,248.1,138.4z M113.7,138.1c2,1.2,6.1,2.9,7.9,2.8
	c6.8-0.4,10.6-7.1,9-13.3c-1.7-6.9-6.1-11.1-13-12.6c-5-1.1-11.3-1.8-18.8-2c-3-0.1-5.8,1.2-4.2,4.7
	C98.8,126.2,105.2,133,113.7,138.1z M206.2,313.2c1.5,3.8-0.7,10-2.5,13.5c-8.6,17-23.7,29.5-40.3,38.4c-0.3,0.2-0.4,0.4-0.3,0.7
	c6.8,27,20.6,58.9,48.2,70.2c5.2,2.1,11.7,3.7,19.4,4.7c16.9,2.2,33.7,1.1,50.5-3.3c2.3-0.6,4.8-1.7,7.2-3.2
	c0.9-0.6,1.2-1.7,0.7-2.7c-0.1-0.1-0.1-0.2-0.2-0.2c-1.9-2.2-5.9-4-8.4-5.4c-14.2-8-25.9-21.5-34.5-35.3c-3.3-5.2-7.6-13.2-7.3-19.6
	c0-1,0.9-1.8,1.9-1.8c1,0,2,0.4,3,1c14.9,10.4,33.2,16.5,51.1,18.8c4.8,0.6,20.2,1.7,21.9-4.9c0.1-0.3,0-0.6-0.1-0.9
	c-7.4-11.7-14.6-23.5-21.8-35.4c-8.5-14-14.2-29.7-15.5-45.8c-0.4-5.3-1.7-21.6,8.9-17.1c11.3,4.8,23.7,12.4,33.9,16
	c10.6,3.8,21.6,5.9,32.9,6.2c3.5,0.1,9.2-2,4.8-6.1c-25.7-23.9-31.5-62.3-33.1-95.4c-0.4-7.2-0.2-14.6,0.3-22.1
	c0.6-7.9,0.8-13.3,0.7-16.1c-0.3-8.5-0.8-18.9-4.6-26.7c-0.1-0.3-0.4-0.5-0.7-0.6l-38.7-10.9c-0.6-0.2-0.9,0.1-0.8,0.7
	c0.3,2.1,0.2,4.4-0.2,6.8c-1.6,10.3-5,20-10.3,28.9c-6.8,11.4-17.1,18.6-30.9,21.7c-7.7,1.7-13.6,2.3-18,1.6c-4.6-0.7-9.8-1-14-2
	c-24.5-5.7-40.5-20.9-47.8-45.5c-1.2-4-1.5-8.1-1-12.3c0-0.3-0.1-0.6-0.4-0.8c-5.4-3.1-10.9-3.3-16.5-0.7c-0.3,0.1-0.5,0.4-0.5,0.8
	c0.5,8.4-3.4,16.8-8,23.9c-0.2,0.3-0.1,0.5,0.3,0.5c4.7,0.2,9.3,0.4,14,0.6c6.7,0.2,8.9,9.4,3,12.5c-1.3,0.7-3.2,0.9-5.7,0.8
	c-8.4-0.3-16.7-0.6-25.1-0.8c-11-0.3-23.2-1.2-34.8-1.5c-0.3,0-0.5,0.1-0.6,0.5c-3.4,18-16.1,31-30.8,40.8c-0.3,0.2-0.4,0.6-0.2,0.9
	c19.6,35.8,55.3,58.8,97.2,53.1c26.1-3.5,48.8-13.9,62.2-37.6c2-3.5,2.8-8.8,6.5-11c7.7-4.7,10,6.4,9,11.4
	c-3.4,17.6-10,33.9-19.7,48.9c-9.5,14.8-20.3,28.5-32.3,41.4c-14,14.9-48,46.1-69.6,26.7c-0.3-0.2-0.4-0.2-0.4,0.2
	c-0.9,11.6,3.9,19.5,16.7,18.8c5.5-0.3,11.1-1.4,16.7-3.2c23-7.6,42.5-20.4,58.5-38.5c1.3-1.5,2.7-2.9,4.1-4.2
	c0.5-0.5,1.3-0.4,1.8,0.1C206.1,312.9,206.2,313.1,206.2,313.2z M27.1,219.6c4.2,12,10.4,22.7,18.6,32.3c2,2.3,3.8,3.7,5.4,4.3
	c6.5,2.2,11.9-6.1,13.9-11.5c0.1-0.3,0.1-0.5-0.2-0.8c-9.5-9.3-17.8-20.1-22.6-32.6c-0.1-0.3-0.3-0.5-0.7-0.6
	c-8.8-2.8-15.6-8.2-20.2-16.2c-0.1-0.1-0.2-0.2-0.4-0.1c-0.1,0.1-0.1,0.2-0.1,0.3C22,203.6,24.8,212.9,27.1,219.6z M128.1,310.8
	c-0.5-1.4-0.5-2.8-0.2-4.1c3-11,4.7-21.8,5-32.5c0-0.3-0.2-0.5-0.5-0.6l-12.3-1.4c-0.3,0-0.5,0.1-0.5,0.4
	c0.6,14.2-1.2,27.8-4.8,41.6c-1.1,4.3-1.5,7.4-1.2,9.2c2.1,11.8,17,10.3,24.3,5.2c18.4-13,29.1-35.7,34-57.8c0-0.2,0-0.3-0.3-0.3
	l-23.4,3.4c-0.4,0.1-0.6,0.3-0.7,0.7c-2,12.2-5.8,25.4-13.9,35c-1.4,1.6-3,2.2-4.9,1.9C128.5,311.4,128.2,311.2,128.1,310.8z"/>
</svg>
